<svg width="101" height="116" viewBox="0 0 101 116" fill="none" xmlns="http://www.w3.org/2000/svg">
<g clip-path="url(#clip0_221_5080)">
<path d="M62.1222 62.6944C74.7621 62.6944 85.0088 52.4778 85.0088 39.875C85.0088 27.2722 74.7621 17.0557 62.1222 17.0557C49.4822 17.0557 39.2356 27.2722 39.2356 39.875C39.2356 52.4778 49.4822 62.6944 62.1222 62.6944Z" fill="#FFDF24"/>
<path d="M62.1222 3.625V11.6725" stroke="#FFDF24" stroke-width="3" stroke-miterlimit="10" stroke-linecap="round"/>
<path d="M62.1222 68.0776V76.1251" stroke="#FFDF24" stroke-width="3" stroke-miterlimit="10" stroke-linecap="round"/>
<path d="M25.7654 39.875H33.8548" stroke="#FFDF24" stroke-width="3" stroke-miterlimit="10" stroke-linecap="round"/>
<path d="M90.4078 39.875H98.479" stroke="#FFDF24" stroke-width="3" stroke-miterlimit="10" stroke-linecap="round"/>
<path d="M36.4179 14.2461L42.126 19.9373" stroke="#FFDF24" stroke-width="3" stroke-miterlimit="10" stroke-linecap="round"/>
<path d="M82.1185 59.8125L87.8265 65.5037" stroke="#FFDF24" stroke-width="3" stroke-miterlimit="10" stroke-linecap="round"/>
<path d="M36.4179 65.5037L42.126 59.8125" stroke="#FFDF24" stroke-width="3" stroke-miterlimit="10" stroke-linecap="round"/>
<path d="M82.1185 19.9373L87.8265 14.2461" stroke="#FFDF24" stroke-width="3" stroke-miterlimit="10" stroke-linecap="round"/>
<path d="M32.4914 28.8189C38.286 28.8072 43.9736 30.3747 48.9396 33.3519C53.9056 36.3291 57.9611 40.6029 60.6679 45.7114C63.984 43.7783 67.7024 42.6332 71.5342 42.3651C75.3661 42.097 79.2084 42.713 82.7628 44.1655C86.3171 45.6179 89.4879 47.8676 92.029 50.7399C94.57 53.6122 96.4129 57.0298 97.4145 60.7273C98.4162 64.4248 98.5496 68.3027 97.8045 72.06C97.0594 75.8172 95.4558 79.3527 93.1182 82.3919C90.7806 85.4311 87.7719 87.8922 84.3257 89.5841C80.8796 91.2761 77.0887 92.1533 73.2474 92.1477L32.4914 92.2564C24.0543 92.2564 15.9627 88.9146 9.99678 82.9662C4.03083 77.0178 0.679199 68.95 0.679199 60.5377C0.679199 52.1253 4.03083 44.0575 9.99678 38.1091C15.9627 32.1607 24.0543 28.8189 32.4914 28.8189Z" fill="url(#paint0_linear_221_5080)"/>
<path d="M97.267 73.9195C100.982 60.6632 93.2149 46.9144 79.9195 43.2106C66.6242 39.5069 52.8349 47.2508 49.1202 60.5071C45.4056 73.7634 53.1723 87.5122 66.4677 91.2159C79.763 94.9197 93.5523 87.1758 97.267 73.9195Z" fill="url(#paint1_linear_221_5080)"/>
<path d="M48.852 100.594V113.281" stroke="#0877AD" stroke-width="3" stroke-miterlimit="10" stroke-linecap="round"/>
<path d="M37.9449 96.9688V109.656" stroke="#0877AD" stroke-width="3" stroke-miterlimit="10" stroke-linecap="round"/>
<path d="M59.759 96.9688V109.656" stroke="#0877AD" stroke-width="3" stroke-miterlimit="10" stroke-linecap="round"/>
</g>
<defs>
<linearGradient id="paint0_linear_221_5080" x1="24.4565" y1="94.957" x2="62.6536" y2="45.3489" gradientUnits="userSpaceOnUse">
<stop stop-color="#F2F2F2"/>
<stop offset="1" stop-color="#CFCFCF"/>
</linearGradient>
<linearGradient id="paint1_linear_221_5080" x1="83.4144" y1="58.355" x2="54.5101" y2="83.5826" gradientUnits="userSpaceOnUse">
<stop offset="0.02" stop-color="white"/>
<stop offset="1" stop-color="white" stop-opacity="0"/>
</linearGradient>
<clipPath id="clip0_221_5080">
<rect width="101" height="116" fill="white"/>
</clipPath>
</defs>
</svg>
