<svg width="26" height="20" viewBox="0 0 26 20" fill="none" xmlns="http://www.w3.org/2000/svg">
<g clip-path="url(#clip0_131_1820)">
<path d="M13 14.4446C10.6167 14.4446 8.66669 12.4446 8.66669 10.0001C8.66669 7.55566 10.6167 5.55566 13 5.55566C15.3834 5.55566 17.3334 7.55566 17.3334 10.0001C17.3334 12.4446 15.3834 14.4446 13 14.4446ZM13 7.77789C11.8084 7.77789 10.8334 8.77789 10.8334 10.0001C10.8334 11.2223 11.8084 12.2223 13 12.2223C14.1917 12.2223 15.1667 11.2223 15.1667 10.0001C15.1667 8.77789 14.1917 7.77789 13 7.77789Z" fill="white"/>
<path d="M13 18.8891C4.87497 18.8891 0.324967 10.8891 0.108301 10.5558C-0.108366 10.2224 -0.108366 9.778 0.108301 9.44466C0.324967 9.11133 4.87497 1.11133 13 1.11133C21.125 1.11133 25.675 9.11133 25.8916 9.44466C26.1083 9.778 26.1083 10.2224 25.8916 10.5558C25.675 10.8891 21.125 18.8891 13 18.8891ZM2.3833 10.0002C3.46663 11.6669 7.2583 16.6669 13 16.6669C18.7416 16.6669 22.5333 11.6669 23.6166 10.0002C22.5333 8.33355 18.7416 3.33355 13 3.33355C7.2583 3.33355 3.46663 8.33355 2.3833 10.0002Z" fill="white"/>
</g>
<defs>
<clipPath id="clip0_131_1820">
<rect width="26" height="20" fill="white"/>
</clipPath>
</defs>
</svg>
