<svg width="21" height="22" viewBox="0 0 21 22" fill="none" xmlns="http://www.w3.org/2000/svg">
<path d="M16 1.43457C15.3812 1.43457 14.7877 1.66971 14.3501 2.08827C13.9125 2.50683 13.6667 3.07452 13.6667 3.66645C13.6667 4.25839 13.9125 4.82608 14.3501 5.24464C14.7877 5.66319 15.3812 5.89834 16 5.89834C16.6188 5.89834 17.2123 5.66319 17.6499 5.24464C18.0875 4.82608 18.3333 4.25839 18.3333 3.66645C18.3333 3.07452 18.0875 2.50683 17.6499 2.08827C17.2123 1.66971 16.6188 1.43457 16 1.43457ZM16 2.55051C16.3094 2.55051 16.6062 2.66808 16.825 2.87736C17.0438 3.08664 17.1667 3.37049 17.1667 3.66645C17.1667 3.96242 17.0438 4.24626 16.825 4.45554C16.6062 4.66482 16.3094 4.7824 16 4.7824C15.6906 4.7824 15.3938 4.66482 15.175 4.45554C14.9562 4.24626 14.8333 3.96242 14.8333 3.66645C14.8333 3.37049 14.9562 3.08664 15.175 2.87736C15.3938 2.66808 15.6906 2.55051 16 2.55051ZM16 14.4911C16 18.3746 12.8663 21.5215 9 21.5215C5.13367 21.5215 2 18.3746 2 14.4911C2 10.6076 9 1.43457 9 1.43457C9 1.43457 16 10.6076 16 14.4911Z" fill="white"/>
</svg>
