<svg width="28" height="28" viewBox="0 0 28 28" fill="none" xmlns="http://www.w3.org/2000/svg">
<g clip-path="url(#clip0_131_1795)">
<path d="M14 7.00016C14.3094 7.00016 14.6061 6.87725 14.8249 6.65845C15.0437 6.43966 15.1666 6.14292 15.1666 5.8335V3.50016C15.1666 3.19074 15.0437 2.894 14.8249 2.6752C14.6061 2.45641 14.3094 2.3335 14 2.3335C13.6906 2.3335 13.3938 2.45641 13.175 2.6752C12.9562 2.894 12.8333 3.19074 12.8333 3.50016V5.8335C12.8333 6.14292 12.9562 6.43966 13.175 6.65845C13.3938 6.87725 13.6906 7.00016 14 7.00016ZM24.5 12.8335H22.1666C21.8572 12.8335 21.5605 12.9564 21.3417 13.1752C21.1229 13.394 21 13.6907 21 14.0002C21 14.3096 21.1229 14.6063 21.3417 14.8251C21.5605 15.0439 21.8572 15.1668 22.1666 15.1668H24.5C24.8094 15.1668 25.1061 15.0439 25.3249 14.8251C25.5437 14.6063 25.6666 14.3096 25.6666 14.0002C25.6666 13.6907 25.5437 13.394 25.3249 13.1752C25.1061 12.9564 24.8094 12.8335 24.5 12.8335ZM6.99998 14.0002C6.99998 13.6907 6.87706 13.394 6.65827 13.1752C6.43948 12.9564 6.14273 12.8335 5.83331 12.8335H3.49998C3.19056 12.8335 2.89381 12.9564 2.67502 13.1752C2.45623 13.394 2.33331 13.6907 2.33331 14.0002C2.33331 14.3096 2.45623 14.6063 2.67502 14.8251C2.89381 15.0439 3.19056 15.1668 3.49998 15.1668H5.83331C6.14273 15.1668 6.43948 15.0439 6.65827 14.8251C6.87706 14.6063 6.99998 14.3096 6.99998 14.0002ZM7.25665 5.8335C7.02922 5.61845 6.72569 5.50255 6.41281 5.51131C6.09994 5.52006 5.80336 5.65274 5.58831 5.88016C5.37327 6.10759 5.25737 6.41112 5.26612 6.72399C5.27488 7.03687 5.40756 7.33345 5.63498 7.5485L7.31498 9.17016C7.42772 9.27902 7.56124 9.36406 7.70756 9.42018C7.85389 9.47631 8.01002 9.50237 8.16665 9.49683C8.3238 9.49623 8.47922 9.46388 8.62356 9.40174C8.76791 9.33959 8.89821 9.24892 9.00665 9.13516C9.22394 8.91657 9.3459 8.62088 9.3459 8.31266C9.3459 8.00445 9.22394 7.70875 9.00665 7.49016L7.25665 5.8335ZM19.8333 9.49683C20.1337 9.49563 20.422 9.37862 20.6383 9.17016L22.3183 7.5485C22.5233 7.33436 22.639 7.05024 22.6421 6.75384C22.6451 6.45745 22.5352 6.17101 22.3347 5.95269C22.1343 5.73438 21.8582 5.60056 21.5626 5.57843C21.267 5.55629 20.9741 5.64748 20.7433 5.8335L19.0633 7.49016C18.846 7.70875 18.7241 8.00445 18.7241 8.31266C18.7241 8.62088 18.846 8.91657 19.0633 9.13516C19.2653 9.34833 19.5403 9.47748 19.8333 9.49683ZM14 21.0002C13.6906 21.0002 13.3938 21.1231 13.175 21.3419C12.9562 21.5607 12.8333 21.8574 12.8333 22.1668V24.5002C12.8333 24.8096 12.9562 25.1063 13.175 25.3251C13.3938 25.5439 13.6906 25.6668 14 25.6668C14.3094 25.6668 14.6061 25.5439 14.8249 25.3251C15.0437 25.1063 15.1666 24.8096 15.1666 24.5002V22.1668C15.1666 21.8574 15.0437 21.5607 14.8249 21.3419C14.6061 21.1231 14.3094 21.0002 14 21.0002ZM20.685 18.8302C20.4622 18.6151 20.1631 18.4974 19.8535 18.5028C19.5439 18.5083 19.2492 18.6365 19.0341 18.8593C18.8191 19.0821 18.7014 19.3812 18.7068 19.6908C18.7123 20.0004 18.8405 20.2951 19.0633 20.5102L20.7433 22.1668C20.9596 22.3753 21.2479 22.4923 21.5483 22.4935C21.7046 22.4944 21.8595 22.4639 22.0038 22.4038C22.1481 22.3436 22.2789 22.2551 22.3883 22.1435C22.4977 22.035 22.5845 21.906 22.6437 21.7638C22.7029 21.6217 22.7334 21.4692 22.7334 21.3152C22.7334 21.1612 22.7029 21.0087 22.6437 20.8665C22.5845 20.7243 22.4977 20.5953 22.3883 20.4868L20.685 18.8302ZM7.31498 18.8302L5.63498 20.4518C5.52563 20.5603 5.43884 20.6893 5.37961 20.8315C5.32038 20.9737 5.28988 21.1261 5.28988 21.2802C5.28988 21.4342 5.32038 21.5867 5.37961 21.7288C5.43884 21.871 5.52563 22 5.63498 22.1085C5.7444 22.2201 5.87515 22.3086 6.01945 22.3688C6.16375 22.4289 6.31866 22.4594 6.47498 22.4585C6.76258 22.4609 7.04095 22.3571 7.25665 22.1668L8.93665 20.5452C9.15943 20.3301 9.28766 20.0354 9.29313 19.7258C9.2986 19.4162 9.18086 19.1171 8.96581 18.8943C8.75077 18.6715 8.45603 18.5433 8.14644 18.5378C7.83685 18.5324 7.53776 18.6501 7.31498 18.8652V18.8302ZM14 9.3335C13.077 9.3335 12.1747 9.60719 11.4073 10.12C10.6399 10.6328 10.0418 11.3616 9.68854 12.2143C9.33533 13.067 9.24292 14.0053 9.42298 14.9106C9.60305 15.8158 10.0475 16.6474 10.7001 17.3C11.3528 17.9526 12.1843 18.3971 13.0896 18.5772C13.9948 18.7572 14.9331 18.6648 15.7858 18.3116C16.6386 17.9584 17.3674 17.3603 17.8802 16.5928C18.393 15.8254 18.6666 14.9231 18.6666 14.0002C18.6666 12.7625 18.175 11.5755 17.2998 10.7003C16.4246 9.82516 15.2377 9.3335 14 9.3335Z" fill="white"/>
</g>
<defs>
<clipPath id="clip0_131_1795">
<rect width="28" height="28" fill="white"/>
</clipPath>
</defs>
</svg>
