<svg width="21" height="21" viewBox="0 0 21 21" fill="none" xmlns="http://www.w3.org/2000/svg">
<path d="M1.3125 8.36317H17.1618C19.0973 8.36317 20.6719 6.78856 20.6719 4.85313C20.6719 2.91739 19.0973 1.34277 17.1618 1.34277H15.2379C14.6945 1.34277 14.2536 1.78337 14.2536 2.32715C14.2536 2.87092 14.6945 3.31152 15.2379 3.31152H17.1618C18.0116 3.31152 18.7031 4.00302 18.7031 4.85313C18.7031 5.70293 18.0116 6.39442 17.1618 6.39442H1.3125C0.76904 6.39442 0.328125 6.83502 0.328125 7.3788C0.328125 7.92257 0.769046 8.36317 1.3125 8.36317ZM17.4624 9.65324H10.8794C10.3359 9.65324 9.89502 10.0938 9.89502 10.6376C9.89502 11.1814 10.3359 11.622 10.8794 11.622H17.4624C18.0962 11.622 18.6115 12.1376 18.6115 12.7711C18.6115 13.4046 18.0962 13.9198 17.4624 13.9198H15.8269C15.2834 13.9198 14.8425 14.3604 14.8425 14.9042C14.8425 15.448 15.2835 15.8886 15.8269 15.8886H17.4624C19.1819 15.8886 20.5802 14.4902 20.5802 12.7711C20.5802 11.0519 19.1819 9.65324 17.4624 9.65324ZM10.3545 13.9198H6.21194C5.66848 13.9198 5.22757 14.3604 5.22757 14.9042C5.22757 15.448 5.66849 15.8886 6.21194 15.8886H10.3545C10.8506 15.8886 11.2543 16.2923 11.2543 16.7884C11.2543 17.2844 10.8506 17.6881 10.3545 17.6881H9.35284C8.80938 17.6881 8.36847 18.1287 8.36847 18.6725C8.36847 19.2163 8.80939 19.6569 9.35284 19.6569H10.3545C11.9362 19.6569 13.2231 18.37 13.2231 16.7884C13.2231 15.2067 11.9362 13.9198 10.3545 13.9198ZM8.92346 10.6376C8.92346 10.0938 8.48254 9.65324 7.93909 9.65324H4.87573C4.33227 9.65324 3.89136 10.0938 3.89136 10.6376C3.89136 11.1814 4.33228 11.622 4.87573 11.622H7.93909C8.48254 11.622 8.92346 11.1814 8.92346 10.6376ZM3.23639 13.9198H1.3125C0.76904 13.9198 0.328125 14.3604 0.328125 14.9042C0.328125 15.448 0.769046 15.8886 1.3125 15.8886H3.23639C3.77985 15.8886 4.22076 15.448 4.22076 14.9042C4.22076 14.3604 3.77985 13.9198 3.23639 13.9198Z" fill="white"/>
</svg>
